<?xml version="1.0" standalone="no"?><!DOCTYPE svg PUBLIC "-//W3C//DTD SVG 1.1//EN" "http://www.w3.org/Graphics/SVG/1.1/DTD/svg11.dtd"><svg class="icon" width="200px" height="200.00px" viewBox="0 0 1024 1024" version="1.1" xmlns="http://www.w3.org/2000/svg"><path fill="#d81e06" d="M906.2 960H117.9c-16.3 0-32.6-8.1-42.8-20.4C65 925.4 60.9 909.1 65 892.8 105.7 685 274.7 530.2 478.4 513.9c68.2 0 142.1 8.7 215.9 38.7 21.4 8.7 28.5 14.3 40.7 20.4 118.1 67.2 199.6 183.3 226.1 319.8 4.1 16.3 0 32.6-12.2 46.8-10.2 12.3-26.4 20.4-42.7 20.4z"  /><path fill="#d81e06" d="M118.9 926.9c-6.6 0-12.7-2.5-16.3-7.1-0.5-0.5-0.5-1-1-1.5-5.1-5.1-5.6-13.7-4.6-18.8C134.7 706 293 560.9 482.5 547.1h15.3c91.1 0 178.7 28.5 221.5 55.5 112 67.2 186.9 172.6 210.3 296.9 1 7.1-0.5 13.7-5.6 20.4-3.6 4.6-9.7 7.1-16.3 7.1l-788.8-0.1z"  /><path fill="#d81e06" d="M497.8 559.3c88.6 0 173.6 27.5 214.9 53.5h0.5c109 64.7 181.3 167 203.7 288.2 0.5 2.5 0.5 6.1-3.6 10.7-0.5 1-3.1 2-6.1 2H118.9c-3.1 0-5.6-1-6.1-2s-1.5-2-2.5-2.5c-1-1-2-4.1-1-7.6C145.9 713.5 299.2 573 483 559.3c4.6 0.5 9.7 0 14.8 0m0-25.5c-5.1 0-10.7 0-15.8 0.5-195.5 14.3-358.5 163-397.2 362.6-2 10.2 0 22.4 8.1 30.6 6.1 8.1 16.3 12.2 26.5 12.2h788.2c10.2 0 20.4-4.1 26.5-12.2 6.1-8.1 10.2-18.3 8.1-30.6-24.4-130.4-101.8-237.3-215.9-305.5-43.2-27.1-131.8-57.6-228.5-57.6z m15.3-1.5c-128.3 0-234.2-105.9-234.2-234.2S384.7 63.8 513.1 63.8 747.3 169.7 747.3 298 641.4 532.3 513.1 532.3z"  /><path fill="#d81e06" d="M513.1 499.2c-111 0-201.1-90.1-201.1-201.1S402 96.9 513.1 96.9 714.2 187 714.2 298s-90.1 201.2-201.1 201.2z"  /><path fill="#d81e06" d="M513.1 109.6c103.9 0 188.4 84.5 188.4 188.4S617 486.4 513.1 486.4 324.6 401.9 324.6 298s84.6-188.4 188.5-188.4m0-25.4c-118.1 0-213.9 95.7-213.9 213.9S394.9 512 513.1 512s213.8-95.8 213.8-214S631.2 84.2 513.1 84.2z"  /></svg>